# xmcd CD database file
#
# Track frame offsets:
#	182
#	17380
#	21527
#	25657
#	29777
#	47552
#	60522
#	77302
#	94852
#	116925
#
# Disc length: 1665 seconds
#
# Revision: 0
# Processed by: cddbd v1.5.2PL0 Copyright (c) Steve Scherf et al.
# Submitted via: CDex 1.51
#
DISCID=75067f0a
DTITLE=Jack Rivers - Volle Gaas en... Ambiance !! [CD 2)
DYEAR=1996
DGENRE=Ambiance
TTITLE0=Medley (Suikerbos...)
TTITLE1=Lang zal hij leven
TTITLE2=Lang zal zij leven
TTITLE3=Lang zullen ze leven
TTITLE4=Medley (Noordzeestrand...)
TTITLE5=Jipie hi he square
TTITLE6=Medley (We komen allen in de hemel...)
TTITLE7=Medley (Geef het orkest een pint...)
TTITLE8=Medley (Ay ay ay ay...)
TTITLE9=Tot wederziens
EXTD=YEAR: 1996
EXTT0=
EXTT1=
EXTT2=
EXTT3=
EXTT4=
EXTT5=
EXTT6=
EXTT7=
EXTT8=
EXTT9=
PLAYORDER=
